<svg width="780.9999999999999" height="205" xmlns="http://www.w3.org/2000/svg">
 <defs>
  <style>.cls-1{font-size:106.07px;fill:#1e3d8a;font-family:Roboto-Bold, Roboto;font-weight:700;}.cls-2{fill:url(#Безымянный_градиент_42);}.cls-3{fill:#fff;}.cls-4{font-size:36.03px;fill:#ccc;font-family:Roboto-Medium, Roboto;}</style>
 </defs>
 <title>main logo</title>
 <g>
  <title>background</title>
  <rect fill="none" id="canvas_background" height="207" width="783" y="-1" x="-1"/>
 </g>
 <g>
  <title>Layer 1</title>
  <text id="svg_1" x="262.569613" y="124.440073" class="cls-1">TEACH</text>
  <rect id="svg_2" ry="17.25" rx="17.25" height="194.03" width="194.03" y="3.570078" x="18.349613" class="cls-2"/>
  <path id="svg_3" d="m174.879613,102.700078a4.18,4.18 0 0 0 -3.17,-6.93l-107.38,0a29.1,29.1 0 0 0 0,58.19l107.38,0a4.19,4.19 0 0 0 3.17,-6.93a33.81,33.81 0 0 1 0,-44.33zm-110.55,26.35l94.12,0a41.61,41.61 0 0 0 5.21,16.52l-99.33,0a20.73,20.73 0 0 1 0,-41.46l99.33,0a42.6,42.6 0 0 0 -5.21,16.55l-94.12,0a4.18,4.18 0 1 0 0,8.35l0,0.04z" class="cls-3"/>
  <path id="svg_4" d="m55.199613,97.090078a4.19,4.19 0 0 0 3.17,6.93l107.39,0a29.1,29.1 0 0 0 0,-58.19l-107.39,0a4.19,4.19 0 0 0 -3.17,6.93a33.78,33.78 0 0 1 0,44.33zm114.73,-22.15a4.17,4.17 0 0 0 -4.17,-4.18l-94.12,0a42.6,42.6 0 0 0 -5.21,-16.55l99.33,0a20.73,20.73 0 0 1 0,41.46l-99.33,0a41.62,41.62 0 0 0 5.21,-16.55l94.12,0a4.17,4.17 0 0 0 4.17,-4.18z" class="cls-3"/>
  <text id="svg_5" x="643.659889" y="124.440073" class="cls-1">2U</text>
  <text id="svg_6" x="310.62961" y="179.130075" class="cls-4">ПЛАТФОРМА ЗНАНИЙ</text>
  <path id="svg_7" d="m174.879613,102.700078a4.18,4.18 0 0 0 -3.17,-6.93l-107.38,0a29.1,29.1 0 0 0 0,58.19l107.38,0a4.19,4.19 0 0 0 3.17,-6.93a33.81,33.81 0 0 1 0,-44.33zm-110.55,26.35l94.12,0a41.61,41.61 0 0 0 5.21,16.52l-99.33,0a20.73,20.73 0 0 1 0,-41.46l99.33,0a42.6,42.6 0 0 0 -5.21,16.55l-94.12,0a4.18,4.18 0 1 0 0,8.35l0,0.04z" class="cls-3"/>
  <path id="svg_8" d="m55.199613,97.090078a4.19,4.19 0 0 0 3.17,6.93l107.39,0a29.1,29.1 0 0 0 0,-58.19l-107.39,0a4.19,4.19 0 0 0 -3.17,6.93a33.78,33.78 0 0 1 0,44.33zm114.73,-22.15a4.17,4.17 0 0 0 -4.17,-4.18l-94.12,0a42.6,42.6 0 0 0 -5.21,-16.55l99.33,0a20.73,20.73 0 0 1 0,41.46l-99.33,0a41.62,41.62 0 0 0 5.21,-16.55l94.12,0a4.17,4.17 0 0 0 4.17,-4.18z" class="cls-3"/>
 </g>
</svg>