<svg id="Слой_1" data-name="Слой 1" xmlns="http://www.w3.org/2000/svg" xmlns:xlink="http://www.w3.org/1999/xlink" viewBox="0 0 1920 1080"><defs><style>.cls-1{fill:url(#Безымянный_градиент_42);}.cls-2{fill:#fff;}</style><linearGradient id="Безымянный_градиент_42" x1="862.78" y1="540.01" x2="1056.81" y2="540.01" gradientUnits="userSpaceOnUse"><stop offset="0" stop-color="#ff8a00"/><stop offset="0.5" stop-color="orange"/><stop offset="0.77" stop-color="#ffb700"/><stop offset="1" stop-color="#ffc000"/></linearGradient></defs><title>sec logo</title><rect class="cls-1" x="862.78" y="443" width="194.03" height="194.03" rx="17.25" ry="17.25"/><path class="cls-2" d="M1019.31,542.13a4.18,4.18,0,0,0-3.17-6.93H908.76a29.1,29.1,0,0,0,0,58.19h107.38a4.19,4.19,0,0,0,3.17-6.93A33.81,33.81,0,0,1,1019.31,542.13ZM908.76,568.48h94.12a41.61,41.61,0,0,0,5.21,16.56H908.76a20.73,20.73,0,0,1,0-41.46h99.33a42.6,42.6,0,0,0-5.21,16.55H908.76a4.18,4.18,0,1,0,0,8.35Z"/><path class="cls-2" d="M899.63,536.52a4.19,4.19,0,0,0,3.17,6.93h107.39a29.1,29.1,0,0,0,0-58.19H902.8a4.19,4.19,0,0,0-3.17,6.93A33.78,33.78,0,0,1,899.63,536.52Zm114.73-22.15a4.17,4.17,0,0,0-4.17-4.18H916.07a42.6,42.6,0,0,0-5.21-16.55h99.33a20.73,20.73,0,0,1,0,41.46H910.86a41.62,41.62,0,0,0,5.21-16.55h94.12A4.17,4.17,0,0,0,1014.36,514.37Z"/><path class="cls-2" d="M1019.31,542.13a4.18,4.18,0,0,0-3.17-6.93H908.76a29.1,29.1,0,0,0,0,58.19h107.38a4.19,4.19,0,0,0,3.17-6.93A33.81,33.81,0,0,1,1019.31,542.13ZM908.76,568.48h94.12a41.61,41.61,0,0,0,5.21,16.56H908.76a20.73,20.73,0,0,1,0-41.46h99.33a42.6,42.6,0,0,0-5.21,16.55H908.76a4.18,4.18,0,1,0,0,8.35Z"/><path class="cls-2" d="M899.63,536.52a4.19,4.19,0,0,0,3.17,6.93h107.39a29.1,29.1,0,0,0,0-58.19H902.8a4.19,4.19,0,0,0-3.17,6.93A33.78,33.78,0,0,1,899.63,536.52Zm114.73-22.15a4.17,4.17,0,0,0-4.17-4.18H916.07a42.6,42.6,0,0,0-5.21-16.55h99.33a20.73,20.73,0,0,1,0,41.46H910.86a41.62,41.62,0,0,0,5.21-16.55h94.12A4.17,4.17,0,0,0,1014.36,514.37Z"/></svg>